<?xml version="1.0" encoding="UTF-8"?>
<svg xmlns="http://www.w3.org/2000/svg" xmlns:xlink="http://www.w3.org/1999/xlink" viewBox="0 0 40 40" version="1.1" width="40px" height="40px">
<g id="surface1">
<path style=" fill:#4788C7;" d="M 9.964844 20.5 C 9.15625 20.5 8.5 19.84375 8.5 19.035156 L 8.5 14.964844 C 8.5 14.15625 9.15625 13.5 9.964844 13.5 L 30.035156 13.5 C 30.84375 13.5 31.5 14.15625 31.5 14.964844 L 31.5 19.035156 C 31.5 19.84375 30.84375 20.5 30.035156 20.5 Z "/>
<path style=" fill:#4788C7;" d="M 30.035156 14 C 30.566406 14 31 14.433594 31 14.964844 L 31 19.035156 C 31 19.566406 30.566406 20 30.035156 20 L 9.964844 20 C 9.433594 20 9 19.566406 9 19.035156 L 9 14.964844 C 9 14.433594 9.433594 14 9.964844 14 L 30.035156 14 M 30.035156 13 L 9.964844 13 C 8.882813 13 8 13.882813 8 14.964844 L 8 19.035156 C 8 20.117188 8.882813 21 9.964844 21 L 30.035156 21 C 31.117188 21 32 20.117188 32 19.035156 L 32 14.964844 C 32 13.882813 31.117188 13 30.035156 13 Z "/>
<path style=" fill:#98CCFD;" d="M 20 38.5 C 17.5625 38.5 15.347656 37.5 14.839844 37.253906 L 10.5 30.847656 L 10.5 23.792969 L 9.5 22.792969 L 9.5 6.160156 C 12.84375 1.585938 19.929688 1.5 20.003906 1.5 C 20.070313 1.5 27.15625 1.585938 30.5 6.160156 L 30.5 22.792969 L 29.5 23.792969 L 29.5 29.863281 L 25.144531 37.261719 C 24.609375 37.519531 22.40625 38.5 20 38.5 Z "/>
<path style=" fill:#4788C7;" d="M 20 2 C 20.203125 2.003906 26.796875 2.113281 30 6.324219 L 30 22.585938 L 29 23.585938 L 29 29.726563 L 24.789063 36.875 C 24.121094 37.183594 22.152344 38 20 38 C 17.828125 38 15.820313 37.15625 15.179688 36.859375 L 11 30.691406 L 11 23.585938 L 10 22.585938 L 10 6.324219 C 13.199219 2.125 19.816406 2.003906 20 2 M 20 1 C 20 1 12.496094 1.023438 9 6 L 9 23 L 10 24 L 10 31 L 14.5 37.644531 C 14.5 37.644531 17.078125 39 20 39 C 22.921875 39 25.5 37.644531 25.5 37.644531 L 30 30 L 30 24 L 31 23 L 31 6 C 27.503906 1.023438 20 1 20 1 Z "/>
<path style=" fill:#98CCFD;" d="M 30.5 8.804688 L 30.367188 8.660156 C 28.628906 6.769531 24.316406 5.566406 24.132813 5.515625 L 23.566406 5.363281 L 22.539063 14.617188 L 20 15.40625 L 17.460938 14.617188 L 16.433594 5.363281 L 15.867188 5.515625 C 15.683594 5.566406 11.371094 6.769531 9.632813 8.660156 L 9.5 8.804688 L 9.5 6.160156 C 12.84375 1.585938 19.929688 1.5 20.003906 1.5 C 20.070313 1.5 27.15625 1.585938 30.5 6.160156 L 30.5 18.9375 Z "/>
<path style=" fill:#4788C7;" d="M 20 2 C 20.203125 2.003906 26.796875 2.113281 30 6.324219 L 30 7.652344 C 27.984375 6.089844 24.679688 5.148438 24.265625 5.035156 L 23.136719 4.726563 L 23.007813 5.890625 L 22.078125 14.238281 L 20 14.882813 L 17.921875 14.238281 L 16.992188 5.890625 L 16.863281 4.726563 L 15.734375 5.035156 C 15.320313 5.148438 12.015625 6.089844 10 7.65625 L 10 6.324219 C 13.199219 2.125 19.816406 2.003906 20 2 M 20 1 C 20 1 12.496094 1.023438 9 6 L 9 23 L 10 19 L 10 9 C 11.660156 7.191406 16 6 16 6 L 17 15 L 20 15.929688 L 23 15 L 24 6 C 24 6 28.339844 7.191406 30 9 L 30 19 L 31 23 L 31 6 C 27.503906 1.023438 20 1 20 1 Z "/>
<path style=" fill:#98CCFD;" d="M 20 38.5 C 18.085938 38.5 16.3125 37.882813 15.390625 37.5 L 17.238281 37.5 L 18.863281 35.5 L 21.136719 35.5 L 22.761719 37.5 L 24.609375 37.5 C 23.683594 37.882813 21.90625 38.5 20 38.5 Z M 14.855469 37.261719 L 10.5 29.863281 L 10.5 25.683594 L 13.09375 29.667969 C 13.585938 30.398438 13.660156 31.320313 13.304688 32.109375 L 12.347656 32.886719 L 15.078125 37.363281 C 14.984375 37.324219 14.910156 37.289063 14.855469 37.261719 Z M 27.652344 32.886719 L 26.695313 32.109375 C 26.339844 31.320313 26.414063 30.398438 26.898438 29.679688 L 29.5 25.683594 L 29.5 29.863281 L 25.144531 37.261719 C 25.089844 37.289063 25.015625 37.324219 24.925781 37.363281 Z "/>
<path style=" fill:#4788C7;" d="M 11 27.367188 L 12.683594 29.957031 C 13.054688 30.503906 13.128906 31.195313 12.890625 31.800781 L 12.4375 32.167969 L 11 29.726563 L 11 27.367188 M 29 27.367188 L 29 29.726563 L 27.5625 32.167969 L 27.109375 31.800781 C 26.871094 31.195313 26.945313 30.503906 27.324219 29.941406 L 29 27.367188 M 20.898438 36 L 22.222656 37.632813 L 22.296875 37.722656 C 21.597656 37.882813 20.808594 38 20 38 C 19.191406 38 18.402344 37.882813 17.703125 37.722656 L 17.777344 37.632813 L 19.101563 36 L 20.898438 36 M 30 24 L 26.484375 29.398438 C 25.875 30.300781 25.804688 31.457031 26.296875 32.425781 L 27 33 L 24.558594 37 L 23 37 L 21.375 35 L 18.625 35 L 17 37 L 15.441406 37 L 13 33 L 13.703125 32.425781 C 14.195313 31.457031 14.125 30.300781 13.515625 29.398438 L 10 24 L 10 30 L 14.5 37.644531 C 14.5 37.644531 17.078125 39 20 39 C 22.921875 39 25.5 37.644531 25.5 37.644531 L 30 30 Z "/>
<path style=" fill:#DFF0FE;" d="M 30 24 L 31 23 L 30 19 L 30 9 C 28.339844 7.191406 24 6 24 6 L 23 15 L 20 15.929688 L 17 15 L 16 6 C 16 6 11.660156 7.191406 10 9 L 10 19 L 9 23 L 10 24 L 13.515625 29.398438 C 14.125 30.300781 14.195313 31.457031 13.703125 32.425781 L 13 33 L 15.441406 37 L 17 37 L 18.625 35 L 21.375 35 L 23 37 L 24.558594 37 L 27 33 L 26.296875 32.425781 C 25.804688 31.457031 25.875 30.300781 26.484375 29.398438 Z "/>
<path style=" fill:#4788C7;" d="M 21 21 L 28 20 L 29 21 L 27 23 L 23 23 Z "/>
<path style=" fill:#4788C7;" d="M 19 21 L 12 20 L 11 21 L 13 23 L 17 23 Z "/>
<path style=" fill:#4788C7;" d="M 30 19 L 28 19 L 21.242188 20.011719 L 18.625 20.027344 L 12 19 L 10 19 L 9.75 20 L 12 20 L 18.492188 21 L 21.375 21 L 28 20 L 30.25 20 Z "/>
<path style=" fill:#4788C7;" d="M 26.234375 29.902344 L 24.015625 33.417969 L 23 32 L 17 32 L 15.980469 33.417969 L 13.765625 29.902344 C 14.027344 30.515625 14.074219 31.191406 13.90625 31.832031 L 16 35 L 17.417969 33 L 22.585938 33 L 24 35 L 26.09375 31.832031 C 25.925781 31.191406 25.972656 30.515625 26.234375 29.902344 Z "/>
</g>
</svg>
